Patient4_TMGait_0pt3_01_right_12_EMG.mot
version=1
nRows=36
nColumns=33
inDegrees=no
endheader
time	1LAddLong	2LGlutMax	3LGlutMed	4LIliopsoas	5LSemiMemb	6LBicFemLong	7LRecFem	8LVastMed	9LVastLat	10LGasMed	11LTibAnt	12lTibPost	13LPeroneusLong	14LSol	15LExtDigLong	16LFlexDigLong	17RAddLong	18RGlutMax	19RGlutMed	20RIliopsoas	21RSemiMemb	22RBicFemLong	23RRecFem	24RVastMed	25RVastLat	26RGasMed	27RTibAnt	28RTibPost	29RPeroneusLong	30RSol	31RExtDigLong	32RFlexDigLong
22.655	0.009155	0.085907	0.080719	0.02594	0.098572	0.28778	-0.016937	-0.014191	-0.016479	0.022888	0.063629	-0.007019	-0.04425	-0.002136	0.784	-0.001678	-0.027161	-0.077972	0.21011	-0.14618	0.15747	0.05188	-0.061493	-0.11841	-0.033264	0.027161	0.20477	0.042267	-0.090027	0.14862	-0.010223	-0.020905
22.656	0.00351	0.074463	0.024567	0.023041	0.093994	0.37186	0.041504	-0.013275	-0.1294	0.01709	-0.043945	-0.005188	-0.03067	-0.011292	0.051117	-0.003815	-0.010376	-0.043945	0.13443	-0.21255	0.086365	-0.037689	-0.02121	-0.13641	-0.059052	-0.00061	-0.43121	-0.019073	-0.16068	0.21851	-0.002899	-0.017242
22.657	-0.016479	0.031128	0.037384	0.003815	0.063324	0.38208	0.013428	0.002899	-0.112	-0.00885	-0.068054	-0.007782	0.038147	0.046387	0.15488	0.002899	-0.001221	-0.054626	0.03067	-0.27863	0.031128	-0.13077	0.012054	-0.18799	-0.15915	-0.031128	-0.3421	-0.014343	0.076599	0.20691	-0.013428	-0.011292
22.658	-0.020599	0.026093	0.03067	0.017395	0.040741	0.41031	-0.041962	0.004883	-0.076141	-0.014343	-0.004578	-0.012512	0.062408	0.050812	0.24017	0.00061	0.014496	0.028534	0.10178	-0.25345	-0.052948	-0.12146	0.15457	-0.22903	-0.21423	-0.021515	0.26382	-0.010986	-0.25055	0.13748	-0.016785	-0.013275
22.659	-0.036316	0.009155	0.004578	0	0.034332	0.30456	-0.002747	0.001221	-0.035706	-0.016785	0.04364	-0.011139	-0.001526	0.057831	-0.18249	-0.00351	0.017548	-0.047455	0.028076	-0.15625	-0.084229	-0.035706	0.18463	-0.21316	-0.28976	0.010986	0.088043	-0.001221	0.37842	-0.13184	-0.016327	0.001068
22.66	-0.039825	-0.060883	-0.053101	0.006714	0.039978	0.13214	-0.034943	-0.005646	0.00061	-0.014496	-0.083923	-0.00885	-0.038605	0.086975	0.12405	-0.012207	0.000458	-0.036316	0.029449	-0.025635	-0.070953	0.021973	-0.085754	0.098267	-0.24582	0.01297	0.34622	-0.002594	0.52475	-0.32547	-0.013428	-0.000153
22.661	-0.020142	-0.045471	-0.12573	0.029449	-0.004272	-0.14297	-0.024109	-0.020447	0.068359	-0.037537	-0.004578	-0.026093	0.091095	0.028229	0.58991	-0.014191	0.002899	-0.013123	0.085754	0.011444	-0.052185	0.005188	-0.24948	0.14404	0.13428	-0.000305	1.0484	-0.002899	0.027771	-0.23132	-0.011902	-0.002289
22.662	-0.035248	-0.10513	-0.16998	0.028839	-0.032959	-0.36774	0.019226	-0.03418	0.10437	-0.024261	0.018005	-0.015717	0.15396	0.019073	-0.56076	-0.011902	0.014496	-0.019226	0.077972	-0.07019	-0.11292	-0.023651	-0.32486	-0.007477	0.48233	0.01358	0.96069	-0.002441	-0.1683	-0.32425	-0.010223	-0.005798
22.663	-0.025787	-0.1561	-0.15976	0.012817	-0.07782	-0.35004	0.01358	0.014343	0.059814	-0.010529	-0.018463	-0.018616	0.11856	0.026093	-0.50995	-0.009918	0.028839	-0.038147	0.035553	-0.2359	-0.1297	-0.037079	-0.41367	0.050201	0.69153	0.006256	0.58365	-0.003967	-0.015717	-0.38315	-0.020447	-0.008545
22.664	-0.029907	-0.16312	-0.10223	0.000153	-0.08194	-0.29083	0.050507	-0.030365	-0.099487	0.026245	-0.062103	-0.022125	-0.018005	0.036621	-0.55389	-0.007324	0.039673	0.011292	0.072937	-0.33432	-0.16342	-0.10254	-0.59341	0.12405	0.62073	0.000458	0.27191	-0.009918	0.70068	-0.26886	-0.008698	-0.002899
22.665	-0.018768	-0.15243	-0.09201	0.024872	-0.045013	-0.15595	0.06546	-0.002899	-0.090027	0.008698	-0.002441	-0.031891	-0.025177	0.040283	-0.41702	-0.008087	0.047302	0.005493	0.005341	-0.18601	-0.12543	-0.18601	-0.65536	0.12634	0.52078	-0.00061	-0.64682	-0.00885	-0.35934	-0.3157	-0.007324	-0.014954
22.666	-0.015564	-0.13534	-0.022125	0.003052	-0.046844	-0.063324	0.045471	0.009003	0.08316	0.004578	0.15167	-0.049591	-0.003204	0.12436	-0.31311	-0.009308	0.059967	-0.005951	-0.045319	0.16815	-0.21408	-0.24506	-0.55634	-0.006256	0.35217	-0.011292	-0.3479	-0.003052	-0.34256	-0.2861	-0.007629	-0.014801
22.667	-0.011597	-0.10025	-0.057983	-0.001068	-0.029755	0.043182	0.014343	0.019989	0.15472	0.018158	0.14099	-0.06424	0.002899	0.20111	0.36041	-0.018005	0.026855	0.029602	0.026398	0.45578	-0.075836	-0.31525	-0.25299	0.1236	-0.022888	-0.011902	0.049896	-0.00824	-0.24216	-0.10483	-0.010223	-0.015259
22.668	-0.011597	-0.051727	-0.031281	0.006866	0.026398	0.033112	-0.11688	0.022278	0.23224	0.021667	0.058899	-0.066986	-0.007935	0.032501	-0.45746	-0.006256	0.003967	0.056305	0.002899	0.53772	0.2417	-0.4277	-0.040588	0.22339	-0.63583	-0.007324	0.052643	-0.008087	-0.24521	-0.11322	-0.003662	-0.016022
22.669	-0.009613	0.021515	-0.067902	0.001373	-0.055389	-0.030975	-0.25085	0.013733	0.31586	0.02182	0.003967	-0.069275	-0.039978	-0.040894	-0.089569	-0.002289	-0.005798	0.000153	0.027161	0.44815	0.23682	-0.34134	-0.000916	0.12207	-0.74097	0.001984	-0.47714	0.007172	-0.18692	-0.1506	-0.005341	-0.008545
22.67	-0.016327	-0.001678	-0.098419	0.006866	-0.072937	-0.14069	-0.13214	0.020599	0.3154	0.0177	0.053558	-0.081024	-0.041962	-0.026398	-0.081635	-0.001373	-0.019684	0.038147	0.020752	0.34744	0.087585	-0.079651	-0.24185	0.017548	-0.083618	-0.00412	-0.42816	-0.011139	-0.2121	-0.25909	-0.009155	-0.019684
22.671	-0.00061	0.02182	-0.069122	0.028381	-0.083008	-0.22827	-0.056305	0.013428	0.26077	-0.003052	0.010529	-0.083313	-0.014648	-0.032501	0.19287	0.000458	-0.005493	-0.033875	0.092621	0.1149	-0.049744	0.17899	-0.4039	-0.084229	0.21042	-0.011444	0.5632	-0.007477	-0.23453	-0.24643	-0.008545	-0.014343
22.672	0.021973	0.060883	0.009155	0.031891	-0.031586	-0.24109	0.082092	0.009766	0.11795	-0.053101	0.026245	-0.071869	0.02121	-0.02243	-0.051575	-0.008545	0.020599	-0.021057	0.013733	-0.055237	0.15228	0.055237	-0.41	-0.070801	0.2298	0.001984	-0.021057	-0.010223	0.20691	-0.3363	-0.005493	-0.005646
22.673	0.033417	0.061188	-0.009003	0.027313	0.084076	-0.21942	0.12039	0.022736	-0.090027	-0.039215	0.050507	-0.072174	0.039673	-0.019989	-0.082092	-0.011139	0.061951	0.034943	-0.046082	-0.086365	0.09964	0.007019	-0.35202	-0.045624	0.26047	0.00885	-1.4978	-0.007172	0.14511	-0.19974	-0.003204	-0.002747
22.674	0.029602	0.033722	-0.05127	0.022278	0.18646	-0.089569	0.095215	0.028229	-0.092468	-0.044861	0.061188	-0.062256	0.009308	-0.0383	-0.049133	-0.001678	0.041656	0.014191	-0.080261	-0.1149	0.088348	0.01358	-0.26688	-0.010223	0.076141	-0.007629	-1.1424	-0.008087	-0.12192	0.21774	-0.007324	0.001678
22.675	0.033569	0.031281	0.045929	0.020752	0.12253	0.017853	0.080719	0.020447	-0.036316	-0.058289	-0.024109	-0.052948	-0.005798	-0.096283	0.020142	0.001678	0.035706	-0.014496	0.036011	-0.16937	0.1831	0.36591	-0.1767	0.071869	-0.25543	-0.002289	-0.63828	-0.008392	-0.32181	0.51086	-0.006104	-0.013275
22.676	0.027008	0.041962	0.10178	0.030365	0.047302	0.10483	0.13016	0.011292	-0.03067	-0.052643	-0.021667	-0.050049	-0.035858	-0.083618	0.074463	-0.000916	-0.018616	-0.014038	0.0383	-0.18005	-0.35629	0.33524	-0.04715	0.17288	-0.6842	-0.005493	-0.005188	-0.008392	-0.5069	0.43015	-0.00351	-0.01236
22.677	0.029297	0.02533	0.046387	0.021515	-0.041656	0.1297	0.074005	-0.005188	0.12192	-0.074768	-0.037537	-0.046539	-0.028076	-0.02243	0.1207	0.004272	0	-0.056305	0.070953	-0.19562	-0.3775	0.19959	0	0.099182	-0.71442	-0.010071	0.1178	-0.00885	-0.52139	0.21255	-0.010834	-0.012817
22.678	0.028992	0.044403	0.006866	0.012512	-0.071869	0.080719	-0.021362	-0.018158	0.21759	-0.085907	-0.017548	-0.037689	0.004425	0	0.1297	-0.001678	0.022888	-0.036469	0.076294	-0.13657	0.10757	0.007935	-0.082245	0.005798	-0.42282	-0.009155	0.20279	-0.004425	0.30868	0.14496	-0.002747	-0.015717
22.679	0.03067	0.034943	-0.011597	0.011292	-0.036926	0.03479	-0.078888	-0.01709	0.1796	-0.060883	-0.016937	-0.024567	-0.010071	0.039978	0.11536	0.002289	0.019073	-0.038757	0.049896	-0.20157	0.1831	0.11139	-0.17532	0.013885	-0.21927	-0.010071	0.2153	-0.009918	0.44388	0.14236	-0.007935	-0.018921
22.68	0.032959	0.057526	0.083008	0.005341	0.06897	0.030365	-0.15839	-0.013275	0.095673	-0.038757	-0.000153	-0.014343	0.000153	0.055847	0.13046	0.013885	-0.040894	0.012054	0.018616	-0.075378	0.19257	0.48599	-0.21988	0.056458	-0.092621	-0.011597	0.17853	-0.009003	0.21606	0.21988	-0.001526	-0.016937
22.681	0.034637	0.10178	0.10925	0.016022	0.10651	0.1062	-0.16281	-0.004578	0.15579	-0.033112	0.001831	-0.00412	-0.004578	0.047455	0.12909	0.003204	-0.086975	-0.024719	0.04425	0.11322	0.072784	0.47058	-0.16235	0.084381	-0.084229	-0.018616	0.12299	-0.003662	0.095978	0.17792	-0.005188	-0.024719
22.682	0.020752	0.063934	0.028076	0.014038	0.075531	0.12909	-0.13596	0.009308	-0.020905	-0.020294	-0.001068	0.014191	0.003052	0.016479	0.12466	0.00946	-0.067291	0.01297	-0.020447	0.18402	0.14328	0.22568	-0.16068	0	-0.13473	-0.005341	0.017395	-0.016479	0.040436	0.085297	-0.004578	-0.020142
22.683	0.013733	0.037842	0.00351	0.02243	0.044403	0.14755	-0.10178	-0.007477	-0.30075	0.019836	-0.015717	0.019836	-0.002594	0.005035	0.10498	0.005341	-0.084839	-0.023346	0.070038	0.25635	0.028076	0.075989	-0.17029	0.14893	-0.088959	0.006714	-0.13245	-0.007477	0.033264	0.10162	-0.002441	-0.031738
22.684	0.00473	0.022278	-0.004883	0.023041	0.033875	0.1471	-0.035095	-0.005493	-0.35782	0.0383	0.001678	0.023804	-0.002441	-0.002747	0.096741	0.004578	-0.054321	0.000305	0.12787	0.15045	0.022278	0.027924	-0.12146	0.1088	-0.096436	-0.006256	-0.073547	-0.011292	-0.12283	0.13367	0.00061	-0.029449
22.685	-0.023041	0.1004	0.020294	0.024261	0.033417	0.10864	-0.045624	0.011444	-0.25543	0.0354	0.026093	0.030975	-0.025177	-0.009918	0.066376	0.022278	-0.009766	0.044708	0.071564	0.027313	0.057983	0.000916	-0.002594	-0.00412	-0.18921	0.002899	0.056458	-0.007477	-0.27908	0.10086	-0.006104	-0.024414
22.686	-0.032501	0.08728	0.033112	0.044556	-0.02121	0.09201	0.004578	0.02594	-0.058289	0.028534	0.040131	0.037079	0.000153	0.025177	0.035706	0.013428	0.011444	0.015259	0.11887	-0.15961	0.01709	0.005798	0.10651	-0.069275	-0.26947	-0.012054	0.12924	-0.003204	-0.24811	0.057068	-0.007019	-0.024414
22.687	-0.02655	0.040588	0.005798	0.024414	-0.071106	0.053406	-0.024567	0.011139	0.078278	0.016479	-0.033112	0.044403	0.046539	0.028229	0.002594	0.01236	0.013885	-0.011139	0.077057	-0.092621	-0.05661	0.088196	0.086365	-0.10056	-0.24704	-0.007782	0.10864	-0.000916	-0.18845	0.11169	-0.002747	-0.02655
22.688	-0.012054	0.029602	0.010376	0.011292	-0.085602	0.080872	-0.049133	0.007172	0.071106	0.013123	0.010071	0.050812	0.015411	0.029144	0.020447	0.014648	0.017548	0.032654	0.010529	0.038757	-0.030212	0.074768	-0.023956	0.007477	-0.052185	-0.016937	0.13779	-0.001221	-0.069427	0.17609	-0.003204	-0.024719
22.689	0.012665	0.010376	0.055084	0.001831	-0.054474	0.081329	-0.003052	0.013733	-0.091858	0.02182	0.035248	0.045776	-0.010834	0.038605	0.070343	0.0177	0.021057	0.10056	-0.076599	0.054321	0.089417	0.064087	-0.15854	0.11932	0.15106	0.002899	-0.025482	-0.00351	0.17181	0.14923	-0.005798	-0.024109
22.69	0.031281	-0.012665	0.06073	0.011139	0.066071	0.067139	0.054321	0.010376	-0.36133	0.012665	0.024567	0.047607	0.02533	0.02533	0.11856	0.032196	0.026398	0.065155	0.069733	0.083466	0.15366	0.009308	-0.38864	-0.037994	0.16937	-0.033875	-0.15701	-0.004425	0.26504	0.18143	-0.002747	-0.024261
